<svg id="Sys-Provision--Streamline-Carbon" xmlns="http://www.w3.org/2000/svg" viewBox="0 0 16 16" height="16" width="16">
  <desc>
    Sys Provision Streamline Icon: https://streamlinehq.com
  </desc>
  <defs></defs>
  <title>sys-provision</title>
  <path d="m10.5 10 0 5 4.5 -2.5 -4.5 -2.5z" fill="#000000" stroke-width="0.5"></path>
  <path d="M6 7a1 1 0 1 0 2 0 1 1 0 1 0 -2 0" fill="#000000" stroke-width="0.5"></path>
  <path d="M7 10a3 3 0 1 1 3 -3 3.0033 3.0033 0 0 1 -3 3Zm0 -5a2 2 0 1 0 2 2 2.00225 2.00225 0 0 0 -2 -2Z" fill="#000000" stroke-width="0.5"></path>
  <path d="m12.9756 6.455 -0.0032 0A6.025 6.025 0 1 0 8.5 12.8025v-1.0332a4.99065 4.99065 0 1 1 3.31175 -3.405l0.9624 0.272A6.01705 6.01705 0 0 0 13 7q0 -0.2754 -0.0244 -0.545Z" fill="#000000" stroke-width="0.5"></path>
  <path id="_Transparent_Rectangle_" d="M0 0h16v16H0Z" fill="none" stroke-width="0.5"></path>
</svg>